<svg width="141" height="36" viewBox="0 0 141 36" fill="none" xmlns="http://www.w3.org/2000/svg">
<path d="M134.816 0.0683594H121.257L105.375 16.1253L119.168 16.123L134.816 0.0689453V0.0683594Z" fill="white"/>
<path d="M92.2188 28.5031V28.6111V29.4151V35.8604H93.3169C94.7842 35.8604 96.1838 35.7449 97.5312 35.5064C98.8693 35.2664 100.057 34.8854 101.082 34.3589C102.104 33.8354 102.922 33.1334 103.539 32.2515C104.146 31.371 104.452 30.288 104.452 29.0011V19.4719V15.842V0.0685385H92.2188V28.5031Z" fill="white"/>
<path d="M119.164 19.0674H105.371L120.704 32.288C125.006 35.8699 129.375 35.8594 130.889 35.8594H140.266L119.164 19.0674Z" fill="white"/>
<path d="M34.08 12.9051H12.7658C12.4028 12.9051 12.1029 12.6126 12.1029 12.2586V9.91871C12.1029 9.56172 12.4028 9.27523 12.7658 9.27523H34.08C35.8011 9.27523 37.1976 10.0852 37.1976 11.0887C37.1976 12.0891 35.8011 12.9051 34.08 12.9051ZM34.08 27.0436H12.7658C12.4028 27.0436 12.1029 26.7557 12.1029 26.4002V24.0587C12.1029 23.7018 12.4028 23.4138 12.7658 23.4138H34.08C35.8011 23.4138 37.1976 24.2282 37.1976 25.2287C37.1976 26.2322 35.8011 27.0436 34.08 27.0436ZM39.823 15.7535L39.7615 15.752C44.3464 15.2705 47.8993 11.9586 47.8993 7.93878C47.8993 3.59192 43.7389 0.0685385 38.6126 0.0685385L37.699 0.0790381C37.4883 0.0745382 37.2853 0.0685385 37.0684 0.0685385H0V35.8604H36.9961C37.4175 35.8604 37.8328 35.8499 38.245 35.8289L38.7218 35.8424C45.2816 35.8424 50.597 31.335 50.597 25.7747C50.597 20.5354 45.8676 16.2245 39.823 15.7535Z" fill="white"/>
<path d="M64.6288 7.50286C64.6288 5.07294 63.623 3.2145 61.6204 1.93054C59.6164 0.645087 56.9063 0.000110541 53.4873 0.000110541H52.3906L52.4245 29.0766C52.5183 30.0591 52.7982 30.9186 53.2719 31.6491C53.8548 32.5535 54.6639 33.317 55.6851 33.9365C56.7141 34.559 57.9107 35.0209 59.2764 35.3299C60.6453 35.6404 62.108 35.7949 63.6722 35.7949H78.765C80.3261 35.7949 81.7826 35.6509 83.1254 35.3659C84.4665 35.0764 85.6385 34.652 86.6383 34.079C87.6395 33.5075 88.4531 32.747 89.0899 31.7931C89.459 31.2396 90.1942 29.5671 90.1942 28.5457V27.3982H64.6288V7.50286Z" fill="white"/>
</svg>
