<svg width="167" height="40" viewBox="0 0 167 40" fill="none" xmlns="http://www.w3.org/2000/svg">
<path d="M148.485 12.7931L148.184 12.8921C147.015 10.3738 145.344 8.36916 143.171 6.8781C141.032 5.38703 138.342 4.6415 135.1 4.6415C133.296 4.6415 131.575 5.02254 129.937 5.78461C128.299 6.5136 126.862 7.55736 125.626 8.91587C124.423 10.2413 123.454 11.8483 122.718 13.737C121.983 15.6257 121.615 17.7132 121.615 19.9995C121.615 22.2858 121.983 24.3733 122.718 26.262C123.454 28.1507 124.423 29.7743 125.626 31.1328C126.862 32.4582 128.299 33.4854 129.937 34.2144C131.575 34.9434 133.296 35.3078 135.1 35.3078C138.309 35.3078 140.915 34.8108 142.921 33.8168C144.959 32.7896 146.68 31.2323 148.084 29.1448L148.385 29.2438L148.285 32.4248C147.516 33.2201 146.631 33.9324 145.628 34.562C144.625 35.1584 143.539 35.672 142.37 36.1028C141.233 36.5004 140.047 36.7986 138.81 36.9974C137.574 37.2296 136.337 37.3456 135.101 37.3456C132.527 37.3456 130.071 36.9314 127.732 36.103C125.392 35.2747 123.337 34.1149 121.566 32.6239C119.795 31.0997 118.391 29.2773 117.355 27.1566C116.319 25.0029 115.801 22.6171 115.801 19.9995C115.801 17.3818 116.319 15.0127 117.355 12.8921C118.391 10.7383 119.795 8.89926 121.566 7.3751C123.337 5.85087 125.392 4.69115 127.732 3.8959C130.071 3.06751 132.527 2.65332 135.101 2.65332C136.337 2.65332 137.574 2.75272 138.81 2.95152C140.047 3.15033 141.233 3.46513 142.37 3.8959C143.539 4.29352 144.625 4.80712 145.628 5.4367C146.631 6.03313 147.516 6.72897 148.285 7.52421L148.485 12.7931Z" fill="white"/>
<path d="M38.0175 22.2864C37.6501 22.4519 37.2992 22.6674 36.9648 22.9329C36.6304 23.1977 36.4632 23.5622 36.4632 24.0264V30.1397C34.8591 32.426 32.8037 34.1988 30.2973 35.4579C27.7908 36.717 25.0169 37.3466 21.9757 37.3466C19.4024 37.3466 16.946 36.9324 14.6066 36.104C12.2673 35.2756 10.2119 34.1159 8.44065 32.6248C6.66941 31.1007 5.26578 29.2783 4.22974 27.1576C3.19377 25.0039 2.67578 22.6181 2.67578 20.0005C2.67578 17.3828 3.19377 15.0136 4.22974 12.8931C5.26578 10.7392 6.66941 8.90025 8.44065 7.37609C10.2119 5.85186 12.2673 4.69213 14.6066 3.89689C16.946 3.0685 19.4024 2.6543 21.9757 2.6543C23.2122 2.6543 24.4488 2.75371 25.6854 2.95252C26.9218 3.15133 28.1082 3.46612 29.2445 3.89689C30.4142 4.29451 31.5003 4.80812 32.5029 5.4377C33.5055 6.03413 34.3912 6.72996 35.1599 7.52519L35.3607 12.7936L35.0599 12.8926C33.8902 10.3744 32.2193 8.36969 30.047 6.87862C27.9081 5.38755 25.2178 4.642 21.9761 4.642C20.1714 4.642 18.4503 5.02305 16.8127 5.78514C15.1752 6.51413 13.7381 7.55788 12.5015 8.91639C11.2984 10.2418 10.3293 11.8489 9.59406 13.7376C8.8588 15.6262 8.49117 17.7137 8.49117 20C8.49117 22.2532 8.84208 24.3241 9.5439 26.2128C10.2792 28.1015 11.2483 29.7251 12.4515 31.0837C13.688 32.4091 15.125 33.4528 16.7626 34.215C18.4002 34.9439 20.138 35.3083 21.9761 35.3083C25.4518 35.3083 28.4261 34.6457 30.8992 33.3203V24.0259C30.8992 23.5623 30.7155 23.1978 30.3481 22.9325C30.0137 22.6676 29.6794 22.4521 29.3454 22.286L29.3913 22.0378C29.5582 22.0681 29.8589 22.1011 30.2936 22.1369C30.7283 22.1672 31.1794 22.2002 31.6471 22.2359C32.1484 22.2359 32.6163 22.2359 33.0508 22.2359C33.4854 22.2359 33.8029 22.2359 34.0032 22.2359C34.2037 22.2359 34.4711 22.2359 34.8055 22.2359C35.173 22.2359 35.5573 22.2359 35.9585 22.2359C36.3595 22.2056 36.7439 22.1726 37.1115 22.1369C37.479 22.1065 37.7629 22.0735 37.9634 22.0378L38.0175 22.2864Z" fill="white"/>
<path d="M74.3289 3.6977C73.9945 3.86317 73.6603 4.07865 73.3263 4.34413C72.9919 4.60901 72.8082 5.10603 72.7752 5.83521C72.7446 6.63044 72.7113 7.64107 72.6752 8.86708C72.6752 10.0599 72.66 11.4184 72.6294 12.9426C72.6294 14.4668 72.6141 16.1236 72.5835 17.9129C72.5835 19.7022 72.5835 21.5577 72.5835 23.4796C72.553 25.6333 72.2855 27.4723 71.7812 28.9965C71.2799 30.5207 70.6115 31.7964 69.776 32.8236C68.974 33.8508 68.0716 34.6626 67.069 35.259C66.0998 35.8555 65.1306 36.3028 64.1615 36.601C63.2257 36.9326 62.3401 37.1314 61.5046 37.1974C60.6691 37.2968 60.0174 37.3465 59.5496 37.3465C57.6446 37.3465 55.8065 37.098 54.0352 36.601C52.264 36.1373 50.71 35.3752 49.3732 34.3147C48.0364 33.2544 46.967 31.8793 46.1649 30.1894C45.3628 28.4995 44.9618 26.4452 44.9618 24.0263C44.9618 22.1044 44.9618 20.2323 44.9618 18.4099C44.9618 16.5543 44.9618 14.8313 44.9618 13.2408C44.9618 11.6504 44.9465 10.2256 44.9159 8.96645C44.9159 7.67419 44.9007 6.63044 44.8701 5.83521C44.8395 5.10622 44.6558 4.60919 44.319 4.34413C43.9846 4.07926 43.6504 3.86378 43.3164 3.6977L43.3623 3.4495C43.5292 3.47981 43.7966 3.51283 44.1646 3.54855C44.5657 3.57886 44.9667 3.61188 45.3678 3.6476C45.8024 3.6476 46.2202 3.66275 46.621 3.69307C47.0221 3.69307 47.3228 3.69307 47.5234 3.69307C47.7239 3.69307 48.0247 3.69307 48.4257 3.69307C48.8267 3.66275 49.2445 3.6476 49.6789 3.6476C50.1135 3.61728 50.5146 3.58426 50.882 3.54855C51.283 3.51823 51.567 3.48522 51.7339 3.4495L51.7797 3.6977C51.4123 3.86317 51.0614 4.07865 50.727 4.34413C50.4262 4.60901 50.259 5.10603 50.2254 5.83521C50.1949 6.63044 50.1615 7.67419 50.1255 8.96645C50.1255 10.2256 50.1255 11.6504 50.1255 13.2408C50.1255 14.8313 50.1255 16.5543 50.1255 18.4099C50.1255 20.2323 50.1255 22.1044 50.1255 24.0263C50.1255 27.638 50.9777 30.3054 52.6821 32.0283C54.3865 33.7514 56.9097 34.6129 60.2517 34.6129C61.2209 34.6129 62.3237 34.4968 63.5603 34.2647C64.7968 33.9998 65.9498 33.4696 67.0192 32.6742C68.1221 31.879 69.0411 30.7524 69.7764 29.2945C70.545 27.8365 70.9294 25.8981 70.9294 23.4793C70.9294 20.8616 70.9141 18.625 70.8835 16.7695C70.8835 14.8808 70.8682 13.2737 70.8377 11.9483C70.8377 10.5898 70.8224 9.43008 70.7918 8.46913C70.7612 7.50824 70.7279 6.63018 70.6918 5.83493C70.6613 5.10594 70.4776 4.60892 70.1407 4.34386C69.8063 4.07898 69.4721 3.8635 69.1382 3.69742L69.184 3.44922C69.5514 3.51525 69.9691 3.58162 70.4372 3.64833C70.9049 3.67865 71.3393 3.6938 71.7406 3.6938C72.108 3.6938 72.5258 3.67865 72.9938 3.64833C73.4951 3.5823 73.9296 3.51592 74.2972 3.44922L74.3289 3.6977Z" fill="white"/>
<path d="M110.704 12.7931L110.403 12.8921C109.233 10.3738 107.562 8.36916 105.39 6.8781C103.251 5.38703 100.561 4.6415 97.3192 4.6415C95.5146 4.6415 93.7934 5.02254 92.1559 5.78461C90.5183 6.5136 89.0812 7.55736 87.8447 8.91587C86.6416 10.2413 85.6724 11.8483 84.9372 13.737C84.2019 15.6257 83.8343 17.7132 83.8343 19.9995C83.8343 22.2858 84.2019 24.3733 84.9372 26.262C85.6724 28.1507 86.6416 29.7743 87.8447 31.1328C89.0812 32.4582 90.5183 33.4854 92.1558 34.2144C93.7934 34.9434 95.5146 35.3078 97.3192 35.3078C100.528 35.3078 103.134 34.8108 105.139 33.8168C107.178 32.7896 108.899 31.2323 110.303 29.1448L110.604 29.2438L110.504 32.4248C109.735 33.2201 108.849 33.9324 107.847 34.562C106.844 35.1584 105.758 35.672 104.588 36.1028C103.452 36.5004 102.266 36.7986 101.029 36.9974C99.7925 37.2296 98.556 37.3456 97.3195 37.3456C94.7462 37.3456 92.2898 36.9314 89.9504 36.103C87.611 35.2747 85.5557 34.1149 83.7845 32.6239C82.0132 31.0997 80.6096 29.2773 79.5736 27.1566C78.5375 25.0029 78.0195 22.6171 78.0195 19.9995C78.0195 17.3818 78.5375 15.0127 79.5736 12.8921C80.6096 10.7383 82.0132 8.89926 83.7845 7.3751C85.5557 5.85087 87.611 4.69115 89.9504 3.8959C92.2898 3.06751 94.7462 2.65332 97.3195 2.65332C98.556 2.65332 99.7925 2.75272 101.029 2.95152C102.266 3.15033 103.452 3.46513 104.588 3.8959C105.758 4.29352 106.844 4.80712 107.847 5.4367C108.849 6.03313 109.735 6.72897 110.504 7.52421L110.704 12.7931Z" fill="white"/>
<path d="M163.592 36.5012C163.426 36.4709 163.142 36.4379 162.741 36.4022C162.373 36.4022 161.972 36.387 161.537 36.3567C161.103 36.3567 160.685 36.3415 160.284 36.3112C159.917 36.3112 159.633 36.3112 159.432 36.3112C159.232 36.3112 158.931 36.3112 158.53 36.3112C158.129 36.3112 157.711 36.3112 157.277 36.3112C156.876 36.3415 156.475 36.3746 156.074 36.4103C155.706 36.4406 155.422 36.4736 155.222 36.5093L155.176 36.3102C155.51 36.1447 155.844 35.9293 156.178 35.6638C156.513 35.3989 156.696 34.9019 156.729 34.1727C156.76 33.3775 156.775 32.5491 156.775 31.6876C156.806 30.8261 156.821 29.8486 156.821 28.7551C156.821 27.6617 156.821 26.4191 156.821 25.0275C156.821 23.6027 156.821 21.9294 156.821 20.0075C156.821 18.0857 156.821 16.4124 156.821 14.9876C156.821 13.5628 156.821 12.3037 156.821 11.2102C156.821 10.1168 156.806 9.15584 156.775 8.32744C156.775 7.46596 156.76 6.6376 156.729 5.84235C156.699 5.11337 156.515 4.61634 156.178 4.35128C155.844 4.05306 155.51 3.82123 155.176 3.65576L155.222 3.45664C155.422 3.52267 155.706 3.57238 156.074 3.60575C156.475 3.60575 156.876 3.62091 157.277 3.65123C157.711 3.68154 158.129 3.6967 158.53 3.6967C158.931 3.6967 159.232 3.6967 159.432 3.6967C159.633 3.6967 159.917 3.6967 160.284 3.6967C160.685 3.66639 161.103 3.65123 161.537 3.65123C161.972 3.62091 162.373 3.58789 162.741 3.55217C163.142 3.52185 163.426 3.48884 163.592 3.45312L163.638 3.65223C163.271 3.8177 162.92 4.04955 162.586 4.34777C162.285 4.61265 162.118 5.10967 162.084 5.83883C162.053 6.63407 162.02 7.46244 161.984 8.32392C161.984 9.15232 161.984 10.1132 161.984 11.2067C161.984 12.3002 161.984 13.5593 161.984 14.9841C161.984 16.4089 161.984 18.0822 161.984 20.004C161.984 21.9259 161.984 23.5992 161.984 25.0239C161.984 26.4156 161.984 27.6582 161.984 28.7516C161.984 29.8451 161.984 30.8226 161.984 31.6841C162.015 32.5456 162.048 33.374 162.084 34.1692C162.115 34.8982 162.282 35.3952 162.586 35.6603C162.92 35.9251 163.271 36.1406 163.638 36.3067L163.592 36.5012Z" fill="white"/>
</svg>
