<svg width="60" height="40" viewBox="0 0 60 40" fill="none" xmlns="http://www.w3.org/2000/svg">
<g clip-path="url(#clip0_1790_8985)">
<path d="M42.1655 1.21361C44.3449 0.131923 45.4248 0.273871 45.4491 1.37027C45.4783 2.79455 45.2699 4.68857 45.1197 6.05903C44.3109 13.5077 42.9597 19.5943 42.858 27.2421C46.4176 17.9292 49.401 11.4565 53.2464 3.48461C54.4669 0.944427 55.2466 1.41922 56.249 0.9689C60.1526 -0.788132 60.298 0.288591 59.7893 2.43724C57.8957 10.3954 53.0477 35.4523 52.3069 39.3106C52.0937 40.4269 50.8927 39.9537 50.5827 39.5172C49.1928 37.5741 47.6236 37.5437 47.7979 36.2517C48.6697 29.819 51.8079 13.6795 52.6265 9.87658C48.4565 18.516 44.1317 29.3164 41.9087 35.4402C41.4389 36.7406 40.5817 36.6452 40.049 35.6937C39.2983 34.3571 37.8406 33.6748 37.5983 32.0954C36.838 27.0738 38.4702 17.5025 38.6977 11.4472C36.4264 18.0619 32.6149 30.9041 30.944 36.7062C30.2563 39.107 27.9606 38.7153 28.5708 36.3755C31.1086 26.6382 36.5765 9.41651 38.9399 3.22519C39.4971 1.7666 40.9547 1.81554 42.1655 1.21361Z" fill="white"/>
<path d="M28.3243 0.0190273C27.5882 -0.162024 25.4524 1.00283 24.1399 1.23282C23.7234 1.30624 23.3262 1.75159 23.1858 2.0698C21.0838 6.94944 19.1999 11.601 17.5678 15.8385C15.4804 16.1987 13.0396 16.673 10.3081 17.293C12.2647 12.2211 14.2407 7.21854 16.1682 2.40743C17.1174 0.0385356 14.6185 -0.186577 13.6498 2.21166C12.3905 5.3294 10.032 11.1708 7.42154 17.9793C5.50367 18.4545 3.46963 18.9977 1.34348 19.6184C-0.201511 20.0691 -0.264392 20.4851 0.403967 21.4214C0.772012 21.9428 1.53239 21.8902 1.88104 22.2618C2.7819 23.2245 3.32917 24.3761 4.94182 24.5504C3.50341 28.4389 2.06504 32.4489 0.76227 36.31C-0.056202 38.7336 2.27329 39.2294 3.16932 36.6647C4.61254 32.5305 6.13327 28.3463 7.69757 24.1744C9.00034 23.8685 12.1531 23.1822 15.0638 22.544C12.7537 28.9428 11.2329 33.8025 10.6566 36.1679C10.5501 36.623 10.7293 36.8756 10.8261 37.0611C11.6058 38.2078 12.3469 38.2548 13.3494 39.6727C13.6207 40.0593 14.5312 40.2678 14.8411 39.3159C16.9817 32.7814 19.1853 26.6504 21.2387 21.154C22.0911 20.9656 23.6263 20.5911 24.5659 19.1742C26.2367 16.6594 26.7161 17.1695 27.1182 16.405C27.6219 15.4452 27.2877 14.5442 25.5055 14.7668C25.5055 14.7668 24.8323 14.8152 23.5876 14.9586C25.5636 9.81716 27.2925 5.45629 28.5372 2.13311C28.9636 1.00771 29.0169 0.185447 28.3243 0.0190273Z" fill="white"/>
<path d="M25.4103 33.3664C25.8704 34.5415 27.3088 34.1857 26.7615 32.7674C26.2045 31.3225 24.8194 26.9729 24.4561 25.5716C23.9621 23.6834 26.1027 24.1998 25.0179 25.4342C24.0881 26.4957 23.4681 26.921 21.7489 28.9395C20.0877 30.8879 20.5381 33.4164 22.3155 33.9748C24.3205 34.6052 26.0883 32.3724 27.1828 30.7343C28.2434 29.1481 27.2166 28.2177 26.1464 29.1554C25.4586 29.7584 24.6644 30.6844 23.8604 31.1836C23.2066 31.5854 22.6932 31.1538 23.565 29.941C24.5772 28.5368 25.7104 27.3602 26.5531 26.0333C28.2724 23.3292 24.8726 21.7704 23.41 23.5269C22.6253 24.4633 22.824 25.3825 23.0371 26.1713C23.381 27.435 24.6595 31.469 25.4103 33.3664Z" fill="white"/>
</g>
<defs>
<clipPath id="clip0_1790_8985">
<rect width="60" height="40" fill="white"/>
</clipPath>
</defs>
</svg>
