<svg width="112" height="40" viewBox="0 0 112 40" fill="none" xmlns="http://www.w3.org/2000/svg">
<g clip-path="url(#clip0_1790_8991)">
<path d="M12.3544 39.9833C9.0173 39.8504 6.28702 38.9353 4.15217 37.2357C3.74474 36.9111 2.77388 35.9376 2.44817 35.527C1.58246 34.4361 0.993885 33.3745 0.601313 32.1966C-0.606685 28.5706 0.0150284 23.8126 2.3796 18.5908C4.40417 14.1202 7.52816 9.68629 12.9784 3.54535C13.7813 2.64172 16.1721 -0.000976562 16.1876 -0.000976562C16.1933 -0.000976562 16.063 0.225213 15.899 0.500653C14.4819 2.87937 13.2693 5.68127 12.6087 8.10696C11.5476 11.9992 11.6756 15.3393 12.9836 17.9294C13.8859 19.7137 15.4327 21.2592 17.1721 22.1136C20.2173 23.6088 24.6756 23.7324 30.1201 22.4755C30.495 22.3885 49.0698 17.4472 71.3978 11.4947C93.7258 5.54154 111.997 0.674732 112 0.678739C112.006 0.683901 60.1258 22.9308 33.1938 34.4722C28.9287 36.2995 27.7881 36.761 25.783 37.4665C20.6573 39.2703 16.0659 40.131 12.3544 39.9833V39.9833Z" fill="white"/>
</g>
<defs>
<clipPath id="clip0_1790_8991">
<rect width="112" height="40" fill="white"/>
</clipPath>
</defs>
</svg>
