<svg width="258" height="40" viewBox="0 0 258 40" fill="none" xmlns="http://www.w3.org/2000/svg">
<g clip-path="url(#clip0_1790_8993)">
<path d="M4.68379 39.9966H1.06211C0.759931 39.9966 0.00390625 39.9966 0.00390625 39.5442C0.00390625 39.2446 0.155564 39.0919 0.608273 38.9403C3.93229 37.8829 4.68266 36.0735 4.68266 33.512V6.49138C4.68266 4.07577 3.92663 2.2652 0.608273 1.06305C0.155564 1.06305 0.00390625 0.761097 0.00390625 0.610687C0.00390625 0.00791633 0.759931 0.158326 1.06211 0.158326H30.9647C37.761 0.158326 43.3508 5.58665 43.3508 12.3822C43.3508 19.1778 37.761 24.5994 30.9647 24.5994H15.8612V33.806C16.0128 36.2205 16.7666 37.8773 19.9356 38.9369C20.3883 39.0885 20.5388 39.24 20.5388 39.5409C20.5388 39.9932 19.7839 39.9932 19.4817 39.9932H4.68379V39.9966ZM227.62 25.3571H234.719L227.62 13.2824L226.863 12.0746L220.525 25.3571H227.62ZM227.62 0.00339271H232.454L252.692 35.6268C253.297 36.5315 254.05 37.4362 254.955 37.8886C255.71 38.4936 256.615 38.6463 257.37 38.946C257.674 39.0987 257.975 39.2502 257.975 39.551C257.975 40.0034 257.22 40.0034 256.916 40.0034H238.944C238.643 40.0034 237.734 40.0034 237.734 39.551C237.734 39.2502 238.037 39.0987 238.342 38.946C239.247 38.6463 239.849 38.1928 240.153 37.2881C240.456 36.2296 240.153 35.6291 239.398 34.2675C238.372 32.0893 237.316 29.9263 236.229 27.7783H219.312L219.163 28.0792C219.01 28.6842 217.805 30.7933 216.899 33.0608C215.693 35.4753 215.239 36.078 215.541 37.2858C215.694 38.1906 216.446 38.6429 217.352 38.9449C217.656 39.0975 217.805 39.2491 217.805 39.5488C217.805 40.0011 217.047 40.0011 216.746 40.0011H208.438C208.137 40.0011 207.38 40.0011 207.38 39.5488C207.38 39.2491 207.533 39.0964 207.984 38.9449C208.741 38.644 209.645 38.4925 210.401 37.8875C211.306 37.4351 212.063 36.5304 212.664 35.6257L213.722 33.3639L225.202 9.35934L223.538 6.49138C222.031 4.07577 220.519 2.56715 218.857 1.66129C218.102 1.20893 217.346 1.20893 216.594 0.906983C216.141 0.755442 215.988 0.603902 216.141 0.301951C216.141 0 216.442 0.151541 216.594 0H227.622L227.62 0.00339271ZM182.463 39.8439H183.067C210.86 39.8439 210.559 0.149279 183.067 0.149279H160.261C159.808 0.149279 159.054 -0.0022618 159.054 0.60164C159.054 0.75205 159.355 1.054 159.656 1.054C162.979 2.11026 163.731 3.92197 163.885 6.18716V33.814C163.735 36.2273 162.979 37.8852 159.656 38.9437C159.355 39.0964 159.054 39.2479 159.054 39.5488C159.054 40.0011 159.809 40.0011 160.261 40.0011H174.912V39.8485H182.463V39.8439ZM182.463 3.01951C184.504 3.02754 186.458 3.84094 187.902 5.28256C189.345 6.72417 190.16 8.67724 190.169 10.7164V29.1298C190.16 31.169 189.346 33.1223 187.902 34.564C186.459 36.0056 184.504 36.8189 182.463 36.8267H174.906V3.01951H182.463ZM124.913 25.3571H132.012L124.913 13.2824L124.157 12.0746L117.819 25.3571H124.913ZM124.913 0.00339271H129.893L150.133 35.6268C150.585 36.5315 151.341 37.4362 152.248 37.8886C153.002 38.4936 153.91 38.6463 154.816 38.946C155.117 39.0987 155.418 39.2502 155.418 39.551C155.418 40.0034 154.512 40.0034 154.211 40.0034H136.245C135.941 40.0034 135.186 40.0034 135.186 39.551C135.186 39.2502 135.336 39.0987 135.788 38.946C136.546 38.6463 137.298 38.1928 137.451 37.2881C137.752 36.2296 137.451 35.6291 136.847 34.2675C135.788 32.0057 134.583 29.8909 133.526 27.7783H116.605L116.454 28.0792C116.304 28.6842 115.246 30.7933 114.191 33.0608C113.134 35.4753 112.53 36.078 112.833 37.2858C113.135 38.1906 113.738 38.6429 114.643 38.9449C114.945 39.0975 115.247 39.2491 115.247 39.5488C115.247 40.0011 114.492 40.0011 114.04 40.0011H105.881C105.579 40.0011 104.673 40.0011 104.673 39.5488C104.673 39.2491 104.975 39.0964 105.277 38.9449C106.182 38.644 106.938 38.4925 107.846 37.8875C108.6 37.4351 109.507 36.5304 109.959 35.6257L111.016 33.3639L122.647 9.35934L120.988 6.49138C119.478 4.07577 117.819 2.56715 116.306 1.66129C115.401 1.20893 114.795 1.20893 113.889 0.906983C113.585 0.755442 113.283 0.603902 113.436 0.301951C113.589 0 113.889 0.151541 114.041 0H124.915L124.913 0.00339271ZM75.0688 26.4145C78.5433 27.62 82.7727 27.9208 86.0945 26.8668L99.2367 38.1872L100.294 39.0919C100.351 39.151 100.395 39.2224 100.422 39.3007C100.448 39.379 100.457 39.4622 100.447 39.5442C100.447 39.9966 99.6905 39.9966 99.3872 39.9966H85.4924L75.071 31.3938L66.611 24.6005V33.9599C66.7638 36.2217 67.6692 37.8829 70.8405 38.9358C71.1426 39.0885 71.2932 39.2389 71.2932 39.5397C71.2932 39.9921 70.5371 39.9921 70.2338 39.9921H51.9591C51.5064 39.9921 50.7504 39.9921 50.7504 39.5397C50.7504 39.2389 51.0537 39.0874 51.3536 38.9358C54.9753 37.7303 55.428 35.9186 55.583 33.0551V6.94374C55.4314 4.22957 54.9787 2.2652 51.3536 1.06305C51.0514 1.06305 50.7504 0.761097 50.7504 0.610687C50.7504 0.00791633 51.5064 0.158326 51.9591 0.158326H81.4124C83.0123 0.15148 84.5979 0.459608 86.0786 1.06511C87.5593 1.67062 88.9062 2.56164 90.0423 3.68731C91.1784 4.81297 92.0815 6.15122 92.6999 7.62564C93.3184 9.10006 93.6402 10.6818 93.6468 12.2805V12.3822C93.6583 15.6093 92.387 18.7088 90.1124 20.9997C87.8378 23.2906 84.746 24.5853 81.5165 24.5994H71.8964C72.3491 25.5041 73.4062 25.8072 74.3116 26.2607C74.6149 26.2607 74.7643 26.4145 75.0676 26.4145H75.0688ZM75.0688 21.7359H76.2832C80.2093 21.7359 83.5333 17.5086 83.5333 12.0746C83.5265 6.7922 80.2036 2.56715 76.2832 2.56715H66.6099V21.7359H75.0688ZM24.4694 2.56828H15.8612V21.7371H25.831C29.9054 21.7371 33.0743 17.5098 33.0743 12.0758C33.0743 6.79446 29.9054 2.56828 25.831 2.56828H24.4694Z" fill="white"/>
</g>
<defs>
<clipPath id="clip0_1790_8993">
<rect width="257.978" height="40" fill="white"/>
</clipPath>
</defs>
</svg>
