<svg width="36" height="37" viewBox="0 0 36 37" fill="none" xmlns="http://www.w3.org/2000/svg">
<rect x="1" y="1.60547" width="34" height="34" rx="17" stroke="white" stroke-width="2"/>
<path d="M27.3333 17.2722H14L18.3867 12.8855C18.5116 12.7616 18.6108 12.6141 18.6785 12.4516C18.7462 12.2892 18.7811 12.1149 18.7811 11.9389C18.7811 11.7629 18.7462 11.5886 18.6785 11.4261C18.6108 11.2636 18.5116 11.1162 18.3867 10.9922C18.1368 10.7439 17.7989 10.6045 17.4467 10.6045C17.0944 10.6045 16.7565 10.7439 16.5067 10.9922L10.7867 16.7255C10.2859 17.2233 10.003 17.8994 10 18.6055V18.6055C10.0065 19.307 10.2891 19.9777 10.7867 20.4722L16.5067 26.2055C16.631 26.329 16.7784 26.4267 16.9405 26.4932C17.1026 26.5597 17.2762 26.5936 17.4514 26.5929C17.6266 26.5923 17.7999 26.5572 17.9615 26.4896C18.1232 26.422 18.2699 26.3232 18.3933 26.1989C18.5168 26.0745 18.6145 25.9271 18.681 25.765C18.7475 25.6029 18.7814 25.4293 18.7807 25.2541C18.7801 25.079 18.745 24.9056 18.6774 24.744C18.6098 24.5824 18.511 24.4356 18.3867 24.3122L14 19.9389H27.3333C27.687 19.9389 28.0261 19.7984 28.2761 19.5483C28.5262 19.2983 28.6667 18.9592 28.6667 18.6055C28.6667 18.2519 28.5262 17.9128 28.2761 17.6627C28.0261 17.4127 27.687 17.2722 27.3333 17.2722Z" fill="white"/>
</svg>
