<svg width="24" height="25" viewBox="0 0 24 25" fill="none" xmlns="http://www.w3.org/2000/svg">
<g clip-path="url(#clip0_1721_8663)">
<path d="M22.713 4.18247C22.4317 3.84491 22.0796 3.57342 21.6815 3.38728C21.2835 3.20115 20.8494 3.10493 20.41 3.10547H4.242L4.2 2.75447C4.11405 2.02489 3.76338 1.3522 3.21449 0.863947C2.6656 0.375692 1.95663 0.105811 1.222 0.105469L1 0.105469C0.734784 0.105469 0.48043 0.210826 0.292893 0.398362C0.105357 0.585898 0 0.840252 0 1.10547C0 1.37069 0.105357 1.62504 0.292893 1.81258C0.48043 2.00011 0.734784 2.10547 1 2.10547H1.222C1.46693 2.1055 1.70334 2.19543 1.88637 2.35818C2.06941 2.52094 2.18634 2.74522 2.215 2.98847L3.591 14.6885C3.73385 15.9053 4.31848 17.0273 5.23391 17.8415C6.14934 18.6557 7.33185 19.1055 8.557 19.1055H19C19.2652 19.1055 19.5196 19.0001 19.7071 18.8126C19.8946 18.625 20 18.3707 20 18.1055C20 17.8403 19.8946 17.5859 19.7071 17.3984C19.5196 17.2108 19.2652 17.1055 19 17.1055H8.557C7.93806 17.1037 7.3348 16.9106 6.82994 16.5525C6.32507 16.1945 5.94331 15.689 5.737 15.1055H17.657C18.8293 15.1055 19.9643 14.6937 20.8638 13.9419C21.7633 13.1901 22.37 12.1462 22.578 10.9925L23.363 6.63847C23.4414 6.20648 23.4237 5.76254 23.3114 5.33811C23.1991 4.91368 22.9948 4.51915 22.713 4.18247ZM21.4 6.28347L20.614 10.6375C20.4891 11.3305 20.1245 11.9575 19.5839 12.4087C19.0433 12.8599 18.3612 13.1065 17.657 13.1055H5.419L4.478 5.10547H20.41C20.5569 5.10459 20.7022 5.13609 20.8355 5.19772C20.9689 5.25936 21.087 5.34962 21.1815 5.46208C21.276 5.57454 21.3446 5.70644 21.3824 5.84841C21.4201 5.99037 21.4262 6.13891 21.4 6.28347Z" fill="#181818" fill-opacity="0.8"/>
<path d="M7 24.1064C8.10456 24.1064 8.99999 23.211 8.99999 22.1064C8.99999 21.0019 8.10456 20.1064 7 20.1064C5.89543 20.1064 5 21.0019 5 22.1064C5 23.211 5.89543 24.1064 7 24.1064Z" fill="#181818" fill-opacity="0.8"/>
<path d="M17 24.1064C18.1046 24.1064 19 23.211 19 22.1064C19 21.0019 18.1046 20.1064 17 20.1064C15.8954 20.1064 15 21.0019 15 22.1064C15 23.211 15.8954 24.1064 17 24.1064Z" fill="#181818" fill-opacity="0.8"/>
</g>
<defs>
<clipPath id="clip0_1721_8663">
<rect width="24" height="24" fill="white" transform="translate(0 0.105469)"/>
</clipPath>
</defs>
</svg>
