<svg width="25" height="25" viewBox="0 0 25 25" fill="none" xmlns="http://www.w3.org/2000/svg">
<path d="M11.626 5.82039L12.5009 7.40116L13.3759 5.82039C13.836 4.98901 14.5074 4.29378 15.3222 3.8049C16.1286 3.32106 17.0472 3.05629 17.9871 3.03655C19.5072 3.11035 20.9378 3.77875 21.9699 4.89821C23.0088 6.02493 23.5594 7.51699 23.5016 9.04843L23.5009 9.06727V9.08613C23.5009 11.0305 22.4638 13.1913 20.8105 15.3629C19.1753 17.5109 17.0372 19.54 15.0583 21.2L15.0576 21.2006C14.3416 21.8023 13.4362 22.1322 12.5009 22.1322C11.5656 22.1322 10.6603 21.8023 9.94428 21.2006L9.94359 21.2C7.96462 19.54 5.82657 17.5109 4.19135 15.3629C2.53811 13.1913 1.50093 11.0305 1.50093 9.08613V9.06727L1.50022 9.04843C1.44244 7.51699 1.9931 6.02493 3.03192 4.89821C4.06405 3.77875 5.49471 3.11035 7.01479 3.03655C7.95466 3.05629 8.87328 3.32106 9.67968 3.8049C10.4945 4.29378 11.1659 4.98901 11.626 5.82039Z"  stroke-width="2"/>
</svg>
