<svg width="24" height="24" viewBox="0 0 24 24" fill="none" xmlns="http://www.w3.org/2000/svg">
<g clip-path="url(#clip0_1789_8945)">
<path d="M17.5009 1.91699C16.3749 1.93451 15.2734 2.24885 14.3077 2.82826C13.342 3.40768 12.5463 4.23166 12.0009 5.21699C11.4556 4.23166 10.6599 3.40768 9.69417 2.82826C8.72848 2.24885 7.62698 1.93451 6.50094 1.91699C4.70588 1.99498 3.01464 2.78025 1.79672 4.10122C0.578794 5.4222 -0.0668157 7.17152 0.000934853 8.96699C0.000934853 13.514 4.78693 18.48 8.80093 21.847C9.69715 22.6001 10.8303 23.013 12.0009 23.013C13.1716 23.013 14.3047 22.6001 15.2009 21.847C19.2149 18.48 24.0009 13.514 24.0009 8.96699C24.0687 7.17152 23.4231 5.4222 22.2052 4.10122C20.9872 2.78025 19.296 1.99498 17.5009 1.91699ZM13.9159 20.317C13.3799 20.7684 12.7017 21.0159 12.0009 21.0159C11.3002 21.0159 10.622 20.7684 10.0859 20.317C4.94793 16.006 2.00093 11.87 2.00093 8.96699C1.93258 7.70171 2.3673 6.46072 3.2103 5.51469C4.0533 4.56866 5.23617 3.99434 6.50094 3.91699C7.7657 3.99434 8.94857 4.56866 9.79157 5.51469C10.6346 6.46072 11.0693 7.70171 11.0009 8.96699C11.0009 9.23221 11.1063 9.48656 11.2938 9.6741C11.4814 9.86164 11.7357 9.96699 12.0009 9.96699C12.2662 9.96699 12.5205 9.86164 12.708 9.6741C12.8956 9.48656 13.0009 9.23221 13.0009 8.96699C12.9326 7.70171 13.3673 6.46072 14.2103 5.51469C15.0533 4.56866 16.2362 3.99434 17.5009 3.91699C18.7657 3.99434 19.9486 4.56866 20.7916 5.51469C21.6346 6.46072 22.0693 7.70171 22.0009 8.96699C22.0009 11.87 19.0539 16.006 13.9159 20.313V20.317Z" fill="#181818"/>
</g>
<defs>
<clipPath id="clip0_1789_8945">
<rect width="24" height="24" fill="white"/>
</clipPath>
</defs>
</svg>
