<svg width="24" height="25" viewBox="0 0 24 25" fill="none" xmlns="http://www.w3.org/2000/svg">
<g clip-path="url(#clip0_1721_8659)">
<path d="M23.121 9.17458L15.536 1.58858C14.5973 0.652568 13.3257 0.126953 12 0.126953C10.6744 0.126953 9.40277 0.652568 8.46401 1.58858L0.879012 9.17458C0.599438 9.45236 0.377782 9.78288 0.226895 10.147C0.0760072 10.5111 -0.0011104 10.9015 1.20795e-05 11.2956V21.1126C1.20795e-05 21.9082 0.316083 22.6713 0.878692 23.2339C1.4413 23.7965 2.20436 24.1126 3.00001 24.1126H21C21.7957 24.1126 22.5587 23.7965 23.1213 23.2339C23.6839 22.6713 24 21.9082 24 21.1126V11.2956C24.0011 10.9015 23.924 10.5111 23.7731 10.147C23.6222 9.78288 23.4006 9.45236 23.121 9.17458ZM15 22.1126H9.00001V18.1786C9.00001 17.3829 9.31608 16.6199 9.87869 16.0573C10.4413 15.4946 11.2044 15.1786 12 15.1786C12.7957 15.1786 13.5587 15.4946 14.1213 16.0573C14.6839 16.6199 15 17.3829 15 18.1786V22.1126ZM22 21.1126C22 21.3778 21.8947 21.6322 21.7071 21.8197C21.5196 22.0072 21.2652 22.1126 21 22.1126H17V18.1786C17 16.8525 16.4732 15.5807 15.5355 14.643C14.5979 13.7054 13.3261 13.1786 12 13.1786C10.6739 13.1786 9.40216 13.7054 8.46448 14.643C7.5268 15.5807 7.00001 16.8525 7.00001 18.1786V22.1126H3.00001C2.7348 22.1126 2.48044 22.0072 2.29291 21.8197C2.10537 21.6322 2.00001 21.3778 2.00001 21.1126V11.2956C2.00094 11.0306 2.1062 10.7766 2.29301 10.5886L9.87801 3.00558C10.4417 2.44451 11.2047 2.12952 12 2.12952C12.7953 2.12952 13.5583 2.44451 14.122 3.00558L21.707 10.5916C21.8931 10.7788 21.9983 11.0316 22 11.2956V21.1126Z" fill="#181818"/>
</g>
<defs>
<clipPath id="clip0_1721_8659">
<rect width="24" height="24" fill="white" transform="translate(0 0.105469)"/>
</clipPath>
</defs>
</svg>
