<svg width="25" height="25" viewBox="0 0 25 25" fill="none" xmlns="http://www.w3.org/2000/svg">
<g clip-path="url(#clip0_1721_8657)">
<path d="M20.5 8.10537C20.5028 6.81023 20.1912 5.53377 19.5918 4.38565C18.9924 3.23754 18.1233 2.25212 17.059 1.51404C15.9947 0.775972 14.7672 0.307326 13.4818 0.148372C12.1965 -0.0105818 10.8918 0.14491 9.67976 0.601487C8.46777 1.05806 7.38474 1.80207 6.52374 2.76959C5.66275 3.7371 5.04952 4.89919 4.73676 6.15601C4.42401 7.41282 4.42106 8.72678 4.72819 9.98498C5.03531 11.2432 5.64333 12.408 6.49998 13.3794V21.6054C6.49997 22.0763 6.63299 22.5377 6.88371 22.9364C7.13444 23.335 7.49266 23.6548 7.91714 23.8587C8.34162 24.0627 8.81509 24.1427 9.28301 24.0893C9.75093 24.036 10.1943 23.8516 10.562 23.5574L12.5 22.0054L14.438 23.5554C14.8056 23.8495 15.2487 24.0339 15.7165 24.0873C16.1842 24.1407 16.6575 24.0609 17.0819 23.8572C17.5063 23.6534 17.8646 23.334 18.1154 22.9356C18.3663 22.5373 18.4996 22.0762 18.5 21.6054V13.3794C19.7883 11.9246 20.4997 10.0486 20.5 8.10537ZM12.5 2.10537C13.6867 2.10537 14.8467 2.45727 15.8334 3.11656C16.8201 3.77584 17.5891 4.71292 18.0433 5.80927C18.4974 6.90563 18.6162 8.11203 18.3847 9.27592C18.1532 10.4398 17.5817 11.5089 16.7426 12.348C15.9035 13.1871 14.8344 13.7586 13.6705 13.9901C12.5066 14.2216 11.3002 14.1028 10.2039 13.6487C9.10752 13.1945 8.17045 12.4255 7.51116 11.4388C6.85187 10.4521 6.49998 9.29206 6.49998 8.10537C6.50157 6.51456 7.13422 4.98936 8.25909 3.86449C9.38397 2.73961 10.9092 2.10696 12.5 2.10537ZM16.217 22.0534C16.1324 22.0953 16.0375 22.1119 15.9436 22.1013C15.8498 22.0907 15.7611 22.0532 15.688 21.9934L12.5 19.4424L9.31298 21.9934C9.23961 22.0523 9.1511 22.0893 9.05763 22.1001C8.96417 22.111 8.86954 22.0952 8.78462 22.0547C8.69971 22.0142 8.62795 21.9505 8.57759 21.871C8.52724 21.7915 8.50034 21.6995 8.49998 21.6054V15.0234C9.71395 15.7319 11.0944 16.1053 12.5 16.1053C13.9056 16.1053 15.286 15.7319 16.5 15.0234V21.6054C16.5011 21.6994 16.475 21.7917 16.4247 21.8712C16.3745 21.9507 16.3024 22.014 16.217 22.0534Z" fill="#181818" fill-opacity="0.8"/>
</g>
<defs>
<clipPath id="clip0_1721_8657">
<rect width="24" height="24" fill="white" transform="translate(0.5 0.105469)"/>
</clipPath>
</defs>
</svg>
