<svg width="24" height="25" viewBox="0 0 24 25" fill="none" xmlns="http://www.w3.org/2000/svg">
<g clip-path="url(#clip0_1721_8655)">
<path d="M13 1.10511C13 0.839896 13.1053 0.585542 13.2929 0.398006C13.4804 0.210469 13.7348 0.105113 14 0.105113C16.6512 0.108024 19.1931 1.16253 21.0678 3.03726C22.9425 4.91199 23.997 7.45384 24 10.1051C24 10.3703 23.8946 10.6247 23.7071 10.8122C23.5195 10.9998 23.2652 11.1051 23 11.1051C22.7347 11.1051 22.4804 10.9998 22.2929 10.8122C22.1053 10.6247 22 10.3703 22 10.1051C21.9976 7.98411 21.154 5.95066 19.6542 4.45089C18.1544 2.95111 16.121 2.10749 14 2.10511C13.7348 2.10511 13.4804 1.99976 13.2929 1.81222C13.1053 1.62468 13 1.37033 13 1.10511ZM14 6.10511C15.0608 6.10511 16.0782 6.52654 16.8284 7.27669C17.5785 8.02683 18 9.04425 18 10.1051C18 10.3703 18.1053 10.6247 18.2929 10.8122C18.4804 10.9998 18.7347 11.1051 19 11.1051C19.2652 11.1051 19.5195 10.9998 19.7071 10.8122C19.8946 10.6247 20 10.3703 20 10.1051C19.9984 8.5143 19.3657 6.9891 18.2409 5.86423C17.116 4.73935 15.5908 4.1067 14 4.10511C13.7348 4.10511 13.4804 4.21047 13.2929 4.39801C13.1053 4.58554 13 4.8399 13 5.10511C13 5.37033 13.1053 5.62468 13.2929 5.81222C13.4804 5.99976 13.7348 6.10511 14 6.10511ZM23.093 16.8441C23.6725 17.4252 23.9979 18.2124 23.9979 19.0331C23.9979 19.8538 23.6725 20.641 23.093 21.2221L22.183 22.2711C13.993 30.1121 -5.93701 10.1871 1.78298 1.97111L2.93298 0.971113C3.51475 0.40779 4.29491 0.0961617 5.10468 0.103647C5.91445 0.111133 6.68872 0.437131 7.25998 1.01111C7.29098 1.04211 9.14398 3.44911 9.14398 3.44911C9.6938 4.02674 9.99988 4.79404 9.99858 5.59152C9.99727 6.38899 9.68869 7.15529 9.13698 7.73111L7.97898 9.18711C8.61982 10.7442 9.56204 12.1594 10.7515 13.3512C11.9409 14.5431 13.3542 15.4881 14.91 16.1321L16.375 14.9671C16.9509 14.4158 17.717 14.1076 18.5143 14.1065C19.3115 14.1054 20.0785 14.4114 20.656 14.9611C20.656 14.9611 23.062 16.8131 23.093 16.8441ZM21.717 18.2981C21.717 18.2981 19.324 16.4571 19.293 16.4261C19.0869 16.2218 18.8086 16.1072 18.5185 16.1072C18.2283 16.1072 17.95 16.2218 17.744 16.4261C17.717 16.4541 15.7 18.0611 15.7 18.0611C15.564 18.1693 15.4023 18.2402 15.2306 18.2669C15.0589 18.2935 14.8833 18.275 14.721 18.2131C12.7054 17.4627 10.8747 16.2879 9.35281 14.7682C7.83091 13.2485 6.65338 11.4195 5.89998 9.40511C5.83318 9.24057 5.8114 9.0612 5.83688 8.88545C5.86237 8.7097 5.93419 8.54391 6.04498 8.40511C6.04498 8.40511 7.65198 6.38711 7.67898 6.36111C7.88324 6.1551 7.99786 5.87673 7.99786 5.58661C7.99786 5.2965 7.88324 5.01813 7.67898 4.81211C7.64798 4.78211 5.80698 2.38711 5.80698 2.38711C5.59788 2.19962 5.32498 2.09921 5.04423 2.10646C4.76347 2.11371 4.49612 2.22808 4.29698 2.42611L3.14698 3.42611C-2.49501 10.2101 14.776 26.5231 20.721 20.9051L21.632 19.8551C21.8454 19.6574 21.9737 19.3844 21.9895 19.0938C22.0054 18.8033 21.9076 18.5179 21.717 18.2981Z" fill="#181818" fill-opacity="0.8"/>
</g>
<defs>
<clipPath id="clip0_1721_8655">
<rect width="24" height="24" fill="white" transform="translate(0 0.105469)"/>
</clipPath>
</defs>
</svg>
