<svg width="25" height="25" viewBox="0 0 25 25" fill="none" xmlns="http://www.w3.org/2000/svg">
<g clip-path="url(#clip0_1721_8661)">
<path d="M24.5 10.1056C24.5 10.0326 24.492 9.95978 24.476 9.88855L23.176 4.02055C22.9345 2.90679 22.3173 1.90993 21.4281 1.19713C20.5389 0.484334 19.4316 0.0989324 18.292 0.105553H6.708C5.56905 0.0998523 4.46273 0.485674 3.57433 1.1984C2.68593 1.91112 2.0694 2.90747 1.828 4.02055L0.524001 9.88855C0.508009 9.95978 0.49996 10.0326 0.500001 10.1056V11.1056C0.499195 12.0791 0.854923 13.0193 1.5 13.7486V19.1056C1.50159 20.4312 2.02888 21.702 2.96622 22.6393C3.90356 23.5767 5.17441 24.104 6.5 24.1056H18.5C19.8256 24.104 21.0964 23.5767 22.0338 22.6393C22.9711 21.702 23.4984 20.4312 23.5 19.1056V13.7486C24.1451 13.0193 24.5008 12.0791 24.5 11.1056V10.1056ZM2.5 10.2146L3.78 4.45455C3.92504 3.78681 4.29502 3.18913 4.82801 2.76153C5.36101 2.33393 6.02469 2.10236 6.708 2.10555H7.5V5.10555C7.5 5.37077 7.60536 5.62512 7.7929 5.81266C7.98043 6.0002 8.23479 6.10555 8.5 6.10555C8.76522 6.10555 9.01957 6.0002 9.20711 5.81266C9.39464 5.62512 9.5 5.37077 9.5 5.10555V2.10555H15.5V5.10555C15.5 5.37077 15.6054 5.62512 15.7929 5.81266C15.9804 6.0002 16.2348 6.10555 16.5 6.10555C16.7652 6.10555 17.0196 6.0002 17.2071 5.81266C17.3946 5.62512 17.5 5.37077 17.5 5.10555V2.10555H18.292C18.9753 2.10236 19.639 2.33393 20.172 2.76153C20.705 3.18913 21.075 3.78681 21.22 4.45455L22.5 10.2146V11.1056C22.5 11.636 22.2893 12.1447 21.9142 12.5198C21.5391 12.8948 21.0304 13.1056 20.5 13.1056H19.5C18.9696 13.1056 18.4609 12.8948 18.0858 12.5198C17.7107 12.1447 17.5 11.636 17.5 11.1056C17.5 10.8403 17.3946 10.586 17.2071 10.3984C17.0196 10.2109 16.7652 10.1056 16.5 10.1056C16.2348 10.1056 15.9804 10.2109 15.7929 10.3984C15.6054 10.586 15.5 10.8403 15.5 11.1056C15.5 11.636 15.2893 12.1447 14.9142 12.5198C14.5391 12.8948 14.0304 13.1056 13.5 13.1056H11.5C10.9696 13.1056 10.4609 12.8948 10.0858 12.5198C9.71072 12.1447 9.5 11.636 9.5 11.1056C9.5 10.8403 9.39464 10.586 9.20711 10.3984C9.01957 10.2109 8.76522 10.1056 8.5 10.1056C8.23479 10.1056 7.98043 10.2109 7.7929 10.3984C7.60536 10.586 7.5 10.8403 7.5 11.1056C7.5 11.636 7.28929 12.1447 6.91422 12.5198C6.53914 12.8948 6.03044 13.1056 5.5 13.1056H4.5C3.96957 13.1056 3.46086 12.8948 3.08579 12.5198C2.71072 12.1447 2.5 11.636 2.5 11.1056V10.2146ZM18.5 22.1056H6.5C5.70435 22.1056 4.94129 21.7895 4.37868 21.2269C3.81607 20.6643 3.5 19.9012 3.5 19.1056V14.9786C3.8266 15.0631 4.16263 15.1058 4.5 15.1056H5.5C6.06782 15.1059 6.62916 14.985 7.14651 14.7509C7.66386 14.5169 8.1253 14.1752 8.5 13.7486C8.8747 14.1752 9.33615 14.5169 9.8535 14.7509C10.3708 14.985 10.9322 15.1059 11.5 15.1056H13.5C14.0678 15.1059 14.6292 14.985 15.1465 14.7509C15.6639 14.5169 16.1253 14.1752 16.5 13.7486C16.8747 14.1752 17.3361 14.5169 17.8535 14.7509C18.3708 14.985 18.9322 15.1059 19.5 15.1056H20.5C20.8374 15.1058 21.1734 15.0631 21.5 14.9786V19.1056C21.5 19.9012 21.1839 20.6643 20.6213 21.2269C20.0587 21.7895 19.2957 22.1056 18.5 22.1056Z" fill="#181818" fill-opacity="0.8"/>
</g>
<defs>
<clipPath id="clip0_1721_8661">
<rect width="24" height="24" fill="white" transform="translate(0.5 0.105469)"/>
</clipPath>
</defs>
</svg>
