<?xml version="1.0" encoding="utf-8"?>
<svg xmlns="http://www.w3.org/2000/svg" style="display:none;">
    <symbol viewBox="0 0 24 24" id="fill-heart">
        <title>fill-heart</title>
        <path d="M11.626 5.82039L12.5009 7.40116L13.3759 5.82039C13.836 4.98901 14.5074 4.29378 15.3222 3.8049C16.1286 3.32106 17.0472 3.05629 17.9871 3.03655C19.5072 3.11035 20.9378 3.77875 21.9699 4.89821C23.0088 6.02493 23.5594 7.51699 23.5016 9.04843L23.5009 9.06727V9.08613C23.5009 11.0305 22.4638 13.1913 20.8105 15.3629C19.1753 17.5109 17.0372 19.54 15.0583 21.2L15.0576 21.2006C14.3416 21.8023 13.4362 22.1322 12.5009 22.1322C11.5656 22.1322 10.6603 21.8023 9.94428 21.2006L9.94359 21.2C7.96462 19.54 5.82657 17.5109 4.19135 15.3629C2.53811 13.1913 1.50093 11.0305 1.50093 9.08613V9.06727L1.50022 9.04843C1.44244 7.51699 1.9931 6.02493 3.03192 4.89821C4.06405 3.77875 5.49471 3.11035 7.01479 3.03655C7.95466 3.05629 8.87328 3.32106 9.67968 3.8049C10.4945 4.29378 11.1659 4.98901 11.626 5.82039Z" stroke-width="2"/>
    </symbol>
    <symbol viewBox="0 0 36 37" id="icon-arrow">
      <title>arrow</title>
     <rect x="1" y="1.60547" width="34" height="34" rx="17" fill="none" stroke="white"  stroke-width="2"/>
      <path d="M27.3333 17.2722H14L18.3867 12.8855C18.5116 12.7616 18.6108 12.6141 18.6785 12.4516C18.7462 12.2892 18.7811 12.1149 18.7811 11.9389C18.7811 11.7629 18.7462 11.5886 18.6785 11.4261C18.6108 11.2636 18.5116 11.1162 18.3867 10.9922C18.1368 10.7439 17.7989 10.6045 17.4467 10.6045C17.0944 10.6045 16.7565 10.7439 16.5067 10.9922L10.7867 16.7255C10.2859 17.2233 10.003 17.8994 10 18.6055V18.6055C10.0065 19.307 10.2891 19.9777 10.7867 20.4722L16.5067 26.2055C16.631 26.329 16.7784 26.4267 16.9405 26.4932C17.1026 26.5597 17.2762 26.5936 17.4514 26.5929C17.6266 26.5923 17.7999 26.5572 17.9615 26.4896C18.1232 26.422 18.2699 26.3232 18.3933 26.1989C18.5168 26.0745 18.6145 25.9271 18.681 25.765C18.7475 25.6029 18.7814 25.4293 18.7807 25.2541C18.7801 25.079 18.745 24.9056 18.6774 24.744C18.6098 24.5824 18.511 24.4356 18.3867 24.3122L14 19.9389H27.3333C27.687 19.9389 28.0261 19.7984 28.2761 19.5483C28.5262 19.2983 28.6667 18.9592 28.6667 18.6055C28.6667 18.2519 28.5262 17.9128 28.2761 17.6627C28.0261 17.4127 27.687 17.2722 27.3333 17.2722Z" fill="white"/>
    </symbol>
   
</svg>

