<svg xmlns="http://www.w3.org/2000/svg" style="display:none;">
    <symbol viewBox="0 0 24 24" id="fill-heart">
        <title>fill-heart</title>
        <path d="M11.626 5.82039L12.5009 7.40116L13.3759 5.82039C13.836 4.98901 14.5074 4.29378 15.3222 3.8049C16.1286 3.32106 17.0472 3.05629 17.9871 3.03655C19.5072 3.11035 20.9378 3.77875 21.9699 4.89821C23.0088 6.02493 23.5594 7.51699 23.5016 9.04843L23.5009 9.06727V9.08613C23.5009 11.0305 22.4638 13.1913 20.8105 15.3629C19.1753 17.5109 17.0372 19.54 15.0583 21.2L15.0576 21.2006C14.3416 21.8023 13.4362 22.1322 12.5009 22.1322C11.5656 22.1322 10.6603 21.8023 9.94428 21.2006L9.94359 21.2C7.96462 19.54 5.82657 17.5109 4.19135 15.3629C2.53811 13.1913 1.50093 11.0305 1.50093 9.08613V9.06727L1.50022 9.04843C1.44244 7.51699 1.9931 6.02493 3.03192 4.89821C4.06405 3.77875 5.49471 3.11035 7.01479 3.03655C7.95466 3.05629 8.87328 3.32106 9.67968 3.8049C10.4945 4.29378 11.1659 4.98901 11.626 5.82039Z" stroke-width="2"/>
    </symbol>
    <symbol viewBox="0 0 166 40" id="adidas">
    <path d="M23.7341 38.8305H30.5794V10.2482H23.7341V12.5815C17.264 7.91499 8.44951 9.5677 3.94852 16.2758C-0.552475 22.9839 1.04163 32.1224 7.51181 36.7889C12.3879 40.2888 18.8581 40.2888 23.7341 36.7889V38.8305ZM8.07443 24.6366C8.07443 20.1645 11.6377 16.4702 15.9512 16.4702C20.2646 16.4702 23.8279 20.1645 23.8279 24.6366C23.8279 29.1087 20.2646 32.803 15.9512 32.803C11.6377 32.803 8.07443 29.2059 8.07443 24.6366ZM55.7099 0.526367V12.5815C49.2398 7.91499 40.4253 9.66492 35.9243 16.2758C31.4233 22.8867 33.1112 32.1224 39.4876 36.7889C44.3637 40.2888 50.8339 40.2888 55.7099 36.7889V38.8305H62.5552V0.526367L55.7099 0.526367ZM40.0502 24.6366C40.0502 20.1645 43.6135 16.4702 47.927 16.4702C52.2404 16.4702 55.8037 20.1645 55.8037 24.6366C55.8037 29.1087 52.2404 32.803 47.927 32.803C43.6135 32.803 40.0502 29.2059 40.0502 24.6366ZM72.7762 0.526367H65.931V7.62333H72.7762V0.526367ZM72.7762 10.2482H65.931V38.8305H72.7762V10.2482ZM97.9068 0.526367V12.5815C91.4366 7.91499 82.6221 9.5677 78.1211 16.2758C73.6202 22.9839 75.2143 32.1224 81.6844 36.7889C86.5605 40.2888 93.0307 40.2888 97.9068 36.7889V38.8305H104.752V0.526367L97.9068 0.526367ZM82.2471 24.6366C82.2471 20.1645 85.8103 16.4702 90.1238 16.4702C94.4372 16.4702 98.0005 20.1645 98.0005 24.6366C98.0005 29.1087 94.4372 32.803 90.1238 32.803C85.8103 32.803 82.2471 29.2059 82.2471 24.6366ZM129.976 38.8305H136.822V10.2482H129.976V12.5815C123.506 7.91499 114.692 9.5677 110.191 16.2758C105.69 22.9839 107.284 32.1224 113.754 36.7889C118.63 40.2888 125.1 40.2888 129.976 36.7889V38.8305ZM114.317 24.6366C114.317 20.1645 117.88 16.4702 122.193 16.4702C126.507 16.4702 130.07 20.1645 130.07 24.6366C130.07 29.1087 126.507 32.803 122.193 32.803C117.786 32.803 114.317 29.2059 114.317 24.6366M139.353 29.4975C139.541 35.2334 144.323 39.3166 152.2 39.3166C158.67 39.3166 164.015 36.4001 164.015 29.9836C164.015 25.5116 161.577 22.8867 155.951 21.8173L151.544 20.9423C148.73 20.359 146.761 19.8729 146.761 18.1229C146.761 16.1786 148.637 15.4008 150.981 15.4008C154.451 15.4008 155.857 17.1508 155.951 19.2896H162.89C162.515 13.6509 158.201 9.95658 151.262 9.95658C144.136 9.95658 139.822 14.0398 139.822 19.3868C139.822 25.9004 144.886 26.9698 149.293 27.7476L152.95 28.4281C155.576 28.9142 156.701 29.692 156.701 31.2475C156.701 32.6085 155.388 34.0668 152.294 34.0668C147.793 34.0668 146.386 31.6363 146.292 29.5947L139.353 29.4975Z" fill="white"/>
    </symbol>
      <symbol viewBox="0 0 166 40" id="prada">
    <path d="M23.7341 38.8305H30.5794V10.2482H23.7341V12.5815C17.264 7.91499 8.44951 9.5677 3.94852 16.2758C-0.552475 22.9839 1.04163 32.1224 7.51181 36.7889C12.3879 40.2888 18.8581 40.2888 23.7341 36.7889V38.8305ZM8.07443 24.6366C8.07443 20.1645 11.6377 16.4702 15.9512 16.4702C20.2646 16.4702 23.8279 20.1645 23.8279 24.6366C23.8279 29.1087 20.2646 32.803 15.9512 32.803C11.6377 32.803 8.07443 29.2059 8.07443 24.6366ZM55.7099 0.526367V12.5815C49.2398 7.91499 40.4253 9.66492 35.9243 16.2758C31.4233 22.8867 33.1112 32.1224 39.4876 36.7889C44.3637 40.2888 50.8339 40.2888 55.7099 36.7889V38.8305H62.5552V0.526367L55.7099 0.526367ZM40.0502 24.6366C40.0502 20.1645 43.6135 16.4702 47.927 16.4702C52.2404 16.4702 55.8037 20.1645 55.8037 24.6366C55.8037 29.1087 52.2404 32.803 47.927 32.803C43.6135 32.803 40.0502 29.2059 40.0502 24.6366ZM72.7762 0.526367H65.931V7.62333H72.7762V0.526367ZM72.7762 10.2482H65.931V38.8305H72.7762V10.2482ZM97.9068 0.526367V12.5815C91.4366 7.91499 82.6221 9.5677 78.1211 16.2758C73.6202 22.9839 75.2143 32.1224 81.6844 36.7889C86.5605 40.2888 93.0307 40.2888 97.9068 36.7889V38.8305H104.752V0.526367L97.9068 0.526367ZM82.2471 24.6366C82.2471 20.1645 85.8103 16.4702 90.1238 16.4702C94.4372 16.4702 98.0005 20.1645 98.0005 24.6366C98.0005 29.1087 94.4372 32.803 90.1238 32.803C85.8103 32.803 82.2471 29.2059 82.2471 24.6366ZM129.976 38.8305H136.822V10.2482H129.976V12.5815C123.506 7.91499 114.692 9.5677 110.191 16.2758C105.69 22.9839 107.284 32.1224 113.754 36.7889C118.63 40.2888 125.1 40.2888 129.976 36.7889V38.8305ZM114.317 24.6366C114.317 20.1645 117.88 16.4702 122.193 16.4702C126.507 16.4702 130.07 20.1645 130.07 24.6366C130.07 29.1087 126.507 32.803 122.193 32.803C117.786 32.803 114.317 29.2059 114.317 24.6366M139.353 29.4975C139.541 35.2334 144.323 39.3166 152.2 39.3166C158.67 39.3166 164.015 36.4001 164.015 29.9836C164.015 25.5116 161.577 22.8867 155.951 21.8173L151.544 20.9423C148.73 20.359 146.761 19.8729 146.761 18.1229C146.761 16.1786 148.637 15.4008 150.981 15.4008C154.451 15.4008 155.857 17.1508 155.951 19.2896H162.89C162.515 13.6509 158.201 9.95658 151.262 9.95658C144.136 9.95658 139.822 14.0398 139.822 19.3868C139.822 25.9004 144.886 26.9698 149.293 27.7476L152.95 28.4281C155.576 28.9142 156.701 29.692 156.701 31.2475C156.701 32.6085 155.388 34.0668 152.294 34.0668C147.793 34.0668 146.386 31.6363 146.292 29.5947L139.353 29.4975Z" fill="white"/>
    </symbol>
      <symbol viewBox="0 0 166 40" id="nike">
    <path d="M23.7341 38.8305H30.5794V10.2482H23.7341V12.5815C17.264 7.91499 8.44951 9.5677 3.94852 16.2758C-0.552475 22.9839 1.04163 32.1224 7.51181 36.7889C12.3879 40.2888 18.8581 40.2888 23.7341 36.7889V38.8305ZM8.07443 24.6366C8.07443 20.1645 11.6377 16.4702 15.9512 16.4702C20.2646 16.4702 23.8279 20.1645 23.8279 24.6366C23.8279 29.1087 20.2646 32.803 15.9512 32.803C11.6377 32.803 8.07443 29.2059 8.07443 24.6366ZM55.7099 0.526367V12.5815C49.2398 7.91499 40.4253 9.66492 35.9243 16.2758C31.4233 22.8867 33.1112 32.1224 39.4876 36.7889C44.3637 40.2888 50.8339 40.2888 55.7099 36.7889V38.8305H62.5552V0.526367L55.7099 0.526367ZM40.0502 24.6366C40.0502 20.1645 43.6135 16.4702 47.927 16.4702C52.2404 16.4702 55.8037 20.1645 55.8037 24.6366C55.8037 29.1087 52.2404 32.803 47.927 32.803C43.6135 32.803 40.0502 29.2059 40.0502 24.6366ZM72.7762 0.526367H65.931V7.62333H72.7762V0.526367ZM72.7762 10.2482H65.931V38.8305H72.7762V10.2482ZM97.9068 0.526367V12.5815C91.4366 7.91499 82.6221 9.5677 78.1211 16.2758C73.6202 22.9839 75.2143 32.1224 81.6844 36.7889C86.5605 40.2888 93.0307 40.2888 97.9068 36.7889V38.8305H104.752V0.526367L97.9068 0.526367ZM82.2471 24.6366C82.2471 20.1645 85.8103 16.4702 90.1238 16.4702C94.4372 16.4702 98.0005 20.1645 98.0005 24.6366C98.0005 29.1087 94.4372 32.803 90.1238 32.803C85.8103 32.803 82.2471 29.2059 82.2471 24.6366ZM129.976 38.8305H136.822V10.2482H129.976V12.5815C123.506 7.91499 114.692 9.5677 110.191 16.2758C105.69 22.9839 107.284 32.1224 113.754 36.7889C118.63 40.2888 125.1 40.2888 129.976 36.7889V38.8305ZM114.317 24.6366C114.317 20.1645 117.88 16.4702 122.193 16.4702C126.507 16.4702 130.07 20.1645 130.07 24.6366C130.07 29.1087 126.507 32.803 122.193 32.803C117.786 32.803 114.317 29.2059 114.317 24.6366M139.353 29.4975C139.541 35.2334 144.323 39.3166 152.2 39.3166C158.67 39.3166 164.015 36.4001 164.015 29.9836C164.015 25.5116 161.577 22.8867 155.951 21.8173L151.544 20.9423C148.73 20.359 146.761 19.8729 146.761 18.1229C146.761 16.1786 148.637 15.4008 150.981 15.4008C154.451 15.4008 155.857 17.1508 155.951 19.2896H162.89C162.515 13.6509 158.201 9.95658 151.262 9.95658C144.136 9.95658 139.822 14.0398 139.822 19.3868C139.822 25.9004 144.886 26.9698 149.293 27.7476L152.95 28.4281C155.576 28.9142 156.701 29.692 156.701 31.2475C156.701 32.6085 155.388 34.0668 152.294 34.0668C147.793 34.0668 146.386 31.6363 146.292 29.5947L139.353 29.4975Z" fill="white"/>
    </symbol>
      <symbol viewBox="0 0 166 40" id="hm">
    <path d="M23.7341 38.8305H30.5794V10.2482H23.7341V12.5815C17.264 7.91499 8.44951 9.5677 3.94852 16.2758C-0.552475 22.9839 1.04163 32.1224 7.51181 36.7889C12.3879 40.2888 18.8581 40.2888 23.7341 36.7889V38.8305ZM8.07443 24.6366C8.07443 20.1645 11.6377 16.4702 15.9512 16.4702C20.2646 16.4702 23.8279 20.1645 23.8279 24.6366C23.8279 29.1087 20.2646 32.803 15.9512 32.803C11.6377 32.803 8.07443 29.2059 8.07443 24.6366ZM55.7099 0.526367V12.5815C49.2398 7.91499 40.4253 9.66492 35.9243 16.2758C31.4233 22.8867 33.1112 32.1224 39.4876 36.7889C44.3637 40.2888 50.8339 40.2888 55.7099 36.7889V38.8305H62.5552V0.526367L55.7099 0.526367ZM40.0502 24.6366C40.0502 20.1645 43.6135 16.4702 47.927 16.4702C52.2404 16.4702 55.8037 20.1645 55.8037 24.6366C55.8037 29.1087 52.2404 32.803 47.927 32.803C43.6135 32.803 40.0502 29.2059 40.0502 24.6366ZM72.7762 0.526367H65.931V7.62333H72.7762V0.526367ZM72.7762 10.2482H65.931V38.8305H72.7762V10.2482ZM97.9068 0.526367V12.5815C91.4366 7.91499 82.6221 9.5677 78.1211 16.2758C73.6202 22.9839 75.2143 32.1224 81.6844 36.7889C86.5605 40.2888 93.0307 40.2888 97.9068 36.7889V38.8305H104.752V0.526367L97.9068 0.526367ZM82.2471 24.6366C82.2471 20.1645 85.8103 16.4702 90.1238 16.4702C94.4372 16.4702 98.0005 20.1645 98.0005 24.6366C98.0005 29.1087 94.4372 32.803 90.1238 32.803C85.8103 32.803 82.2471 29.2059 82.2471 24.6366ZM129.976 38.8305H136.822V10.2482H129.976V12.5815C123.506 7.91499 114.692 9.5677 110.191 16.2758C105.69 22.9839 107.284 32.1224 113.754 36.7889C118.63 40.2888 125.1 40.2888 129.976 36.7889V38.8305ZM114.317 24.6366C114.317 20.1645 117.88 16.4702 122.193 16.4702C126.507 16.4702 130.07 20.1645 130.07 24.6366C130.07 29.1087 126.507 32.803 122.193 32.803C117.786 32.803 114.317 29.2059 114.317 24.6366M139.353 29.4975C139.541 35.2334 144.323 39.3166 152.2 39.3166C158.67 39.3166 164.015 36.4001 164.015 29.9836C164.015 25.5116 161.577 22.8867 155.951 21.8173L151.544 20.9423C148.73 20.359 146.761 19.8729 146.761 18.1229C146.761 16.1786 148.637 15.4008 150.981 15.4008C154.451 15.4008 155.857 17.1508 155.951 19.2896H162.89C162.515 13.6509 158.201 9.95658 151.262 9.95658C144.136 9.95658 139.822 14.0398 139.822 19.3868C139.822 25.9004 144.886 26.9698 149.293 27.7476L152.95 28.4281C155.576 28.9142 156.701 29.692 156.701 31.2475C156.701 32.6085 155.388 34.0668 152.294 34.0668C147.793 34.0668 146.386 31.6363 146.292 29.5947L139.353 29.4975Z" fill="white"/>
    </symbol>
      <symbol viewBox="0 0 166 40" id="gucci">
    <path d="M23.7341 38.8305H30.5794V10.2482H23.7341V12.5815C17.264 7.91499 8.44951 9.5677 3.94852 16.2758C-0.552475 22.9839 1.04163 32.1224 7.51181 36.7889C12.3879 40.2888 18.8581 40.2888 23.7341 36.7889V38.8305ZM8.07443 24.6366C8.07443 20.1645 11.6377 16.4702 15.9512 16.4702C20.2646 16.4702 23.8279 20.1645 23.8279 24.6366C23.8279 29.1087 20.2646 32.803 15.9512 32.803C11.6377 32.803 8.07443 29.2059 8.07443 24.6366ZM55.7099 0.526367V12.5815C49.2398 7.91499 40.4253 9.66492 35.9243 16.2758C31.4233 22.8867 33.1112 32.1224 39.4876 36.7889C44.3637 40.2888 50.8339 40.2888 55.7099 36.7889V38.8305H62.5552V0.526367L55.7099 0.526367ZM40.0502 24.6366C40.0502 20.1645 43.6135 16.4702 47.927 16.4702C52.2404 16.4702 55.8037 20.1645 55.8037 24.6366C55.8037 29.1087 52.2404 32.803 47.927 32.803C43.6135 32.803 40.0502 29.2059 40.0502 24.6366ZM72.7762 0.526367H65.931V7.62333H72.7762V0.526367ZM72.7762 10.2482H65.931V38.8305H72.7762V10.2482ZM97.9068 0.526367V12.5815C91.4366 7.91499 82.6221 9.5677 78.1211 16.2758C73.6202 22.9839 75.2143 32.1224 81.6844 36.7889C86.5605 40.2888 93.0307 40.2888 97.9068 36.7889V38.8305H104.752V0.526367L97.9068 0.526367ZM82.2471 24.6366C82.2471 20.1645 85.8103 16.4702 90.1238 16.4702C94.4372 16.4702 98.0005 20.1645 98.0005 24.6366C98.0005 29.1087 94.4372 32.803 90.1238 32.803C85.8103 32.803 82.2471 29.2059 82.2471 24.6366ZM129.976 38.8305H136.822V10.2482H129.976V12.5815C123.506 7.91499 114.692 9.5677 110.191 16.2758C105.69 22.9839 107.284 32.1224 113.754 36.7889C118.63 40.2888 125.1 40.2888 129.976 36.7889V38.8305ZM114.317 24.6366C114.317 20.1645 117.88 16.4702 122.193 16.4702C126.507 16.4702 130.07 20.1645 130.07 24.6366C130.07 29.1087 126.507 32.803 122.193 32.803C117.786 32.803 114.317 29.2059 114.317 24.6366M139.353 29.4975C139.541 35.2334 144.323 39.3166 152.2 39.3166C158.67 39.3166 164.015 36.4001 164.015 29.9836C164.015 25.5116 161.577 22.8867 155.951 21.8173L151.544 20.9423C148.73 20.359 146.761 19.8729 146.761 18.1229C146.761 16.1786 148.637 15.4008 150.981 15.4008C154.451 15.4008 155.857 17.1508 155.951 19.2896H162.89C162.515 13.6509 158.201 9.95658 151.262 9.95658C144.136 9.95658 139.822 14.0398 139.822 19.3868C139.822 25.9004 144.886 26.9698 149.293 27.7476L152.95 28.4281C155.576 28.9142 156.701 29.692 156.701 31.2475C156.701 32.6085 155.388 34.0668 152.294 34.0668C147.793 34.0668 146.386 31.6363 146.292 29.5947L139.353 29.4975Z" fill="white"/>
    </symbol>
      <symbol viewBox="0 0 166 40" id="blk">
    <path d="M23.7341 38.8305H30.5794V10.2482H23.7341V12.5815C17.264 7.91499 8.44951 9.5677 3.94852 16.2758C-0.552475 22.9839 1.04163 32.1224 7.51181 36.7889C12.3879 40.2888 18.8581 40.2888 23.7341 36.7889V38.8305ZM8.07443 24.6366C8.07443 20.1645 11.6377 16.4702 15.9512 16.4702C20.2646 16.4702 23.8279 20.1645 23.8279 24.6366C23.8279 29.1087 20.2646 32.803 15.9512 32.803C11.6377 32.803 8.07443 29.2059 8.07443 24.6366ZM55.7099 0.526367V12.5815C49.2398 7.91499 40.4253 9.66492 35.9243 16.2758C31.4233 22.8867 33.1112 32.1224 39.4876 36.7889C44.3637 40.2888 50.8339 40.2888 55.7099 36.7889V38.8305H62.5552V0.526367L55.7099 0.526367ZM40.0502 24.6366C40.0502 20.1645 43.6135 16.4702 47.927 16.4702C52.2404 16.4702 55.8037 20.1645 55.8037 24.6366C55.8037 29.1087 52.2404 32.803 47.927 32.803C43.6135 32.803 40.0502 29.2059 40.0502 24.6366ZM72.7762 0.526367H65.931V7.62333H72.7762V0.526367ZM72.7762 10.2482H65.931V38.8305H72.7762V10.2482ZM97.9068 0.526367V12.5815C91.4366 7.91499 82.6221 9.5677 78.1211 16.2758C73.6202 22.9839 75.2143 32.1224 81.6844 36.7889C86.5605 40.2888 93.0307 40.2888 97.9068 36.7889V38.8305H104.752V0.526367L97.9068 0.526367ZM82.2471 24.6366C82.2471 20.1645 85.8103 16.4702 90.1238 16.4702C94.4372 16.4702 98.0005 20.1645 98.0005 24.6366C98.0005 29.1087 94.4372 32.803 90.1238 32.803C85.8103 32.803 82.2471 29.2059 82.2471 24.6366ZM129.976 38.8305H136.822V10.2482H129.976V12.5815C123.506 7.91499 114.692 9.5677 110.191 16.2758C105.69 22.9839 107.284 32.1224 113.754 36.7889C118.63 40.2888 125.1 40.2888 129.976 36.7889V38.8305ZM114.317 24.6366C114.317 20.1645 117.88 16.4702 122.193 16.4702C126.507 16.4702 130.07 20.1645 130.07 24.6366C130.07 29.1087 126.507 32.803 122.193 32.803C117.786 32.803 114.317 29.2059 114.317 24.6366M139.353 29.4975C139.541 35.2334 144.323 39.3166 152.2 39.3166C158.67 39.3166 164.015 36.4001 164.015 29.9836C164.015 25.5116 161.577 22.8867 155.951 21.8173L151.544 20.9423C148.73 20.359 146.761 19.8729 146.761 18.1229C146.761 16.1786 148.637 15.4008 150.981 15.4008C154.451 15.4008 155.857 17.1508 155.951 19.2896H162.89C162.515 13.6509 158.201 9.95658 151.262 9.95658C144.136 9.95658 139.822 14.0398 139.822 19.3868C139.822 25.9004 144.886 26.9698 149.293 27.7476L152.95 28.4281C155.576 28.9142 156.701 29.692 156.701 31.2475C156.701 32.6085 155.388 34.0668 152.294 34.0668C147.793 34.0668 146.386 31.6363 146.292 29.5947L139.353 29.4975Z" fill="white"/>
    </symbol>
</svg>